<?xml version="1.0" encoding="utf-8" ?>
<svg xmlns="http://www.w3.org/2000/svg" xmlns:xlink="http://www.w3.org/1999/xlink" width="32" height="32">
	<defs>
		<linearGradient id="gradient_0" gradientUnits="userSpaceOnUse" x1="827.72729" y1="657.91418" x2="304.49646" y2="438.28006">
			<stop offset="0" stop-color="#247039"/>
			<stop offset="1" stop-color="#63A74A"/>
		</linearGradient>
	</defs>
	<path fill="url(#gradient_0)" transform="scale(0.03125 0.03125)" d="M511.876 96.0929C515.954 101.315 519.642 106.821 523.765 112.011C529.09 118.714 534.906 124.865 540.84 131.029C555.401 144.669 569.692 157.838 585.872 169.596C646.451 213.622 730.771 245.145 802.717 264.843C812.91 267.634 823.151 270.483 833.445 272.872C844.936 275.54 856.57 277.757 867.962 280.835C868.323 325.769 868.43 370.705 868.282 415.64C868.332 450.919 869.29 486.809 865.397 521.903C854.261 625.782 808.208 722.809 734.77 797.117C673.161 859.521 594.847 900.55 512.77 929.319C505.633 927.51 498.717 924.745 491.814 922.205C480.908 918.289 470.109 914.081 459.427 909.588C361.904 868.395 274.324 798.889 219.891 707.365C215.913 700.676 211.742 693.723 208.733 686.54C204.344 681.344 194.93 658.091 191.709 650.45C172.446 604.847 161.002 556.325 157.857 506.92C156.057 475.672 157.089 444.06 156.993 412.752C156.452 369.043 156.291 325.331 156.512 281.62C161.695 280.152 167.127 279.194 172.373 277.915C185.819 274.645 199.22 271.19 212.571 267.552C290.804 245.625 378.972 214.039 444.358 164.889C461.042 152.348 476.848 137.798 491.02 122.49C498.696 114.199 504.977 104.994 511.876 96.0929ZM192.593 311.021C194.049 330.04 193.186 349.6 193.201 368.695L193.352 435.602C193.324 454.637 192.963 473.725 193.807 492.748C195.369 536.148 203.815 579.025 218.827 619.776C224.915 636.238 231.474 652.57 239.607 668.144C243.66 675.904 249.156 683.317 252.787 691.195L253.709 692.748C255.562 695.547 258.002 698.685 259.271 701.795C262.99 706.587 266.145 711.997 269.66 716.968C276.993 727.384 284.857 737.416 293.221 747.024C344.558 804.435 408.621 849.031 480.283 877.244C490.637 881.415 501.279 886.352 511.97 889.548C531.599 881.695 551.433 874.695 570.741 865.993C613.746 846.341 653.591 820.404 688.967 789.033C775.022 712.731 826.339 604.709 831.123 489.799C831.852 473.267 831.555 456.625 831.576 440.076L831.532 356.335C831.52 341.049 830.961 325.534 831.778 310.284C809.548 305.041 787.493 298.481 765.649 291.828C755.322 288.683 744.882 285.806 734.642 282.388C668.211 260.21 597.826 228.145 544.339 182.639C536.002 175.545 521.726 164.224 515.747 155.508C514.725 154.402 513.651 153.322 512.758 152.106C495.359 169.129 479.72 184.379 459.985 198.938C442.017 212.193 422.336 223.629 402.594 233.994C336.095 268.906 264.644 290.802 192.593 311.021Z"/>
	<path fill="#2BA14E" transform="scale(0.03125 0.03125)" d="M483.815 711.859C467.392 667.513 457.38 596.909 466.752 550.014C469.203 537.752 473.852 525.534 479.057 514.173C503.567 460.668 547.871 435.839 598.338 411.191C633.369 394.081 669.776 379.198 703.922 360.4C722.495 350.175 741.029 339.896 750.925 320.197C792.618 401.041 807.057 478.98 779.075 566.766C760.277 625.74 716.625 678.306 661.535 706.782C617.543 729.521 574.164 738.362 524.791 737.389C507.673 767.63 498.052 801.533 496.735 836.258C496.483 842.012 496.22 847.936 496.567 853.687C496.715 856.137 497.976 860.07 497.249 862.32C495.004 857.123 494.526 847.614 494.035 841.767C490.103 794.958 502.956 747.567 520.096 704.451C529.88 679.842 541.227 654.758 554.716 631.972C599.888 637.207 644.719 625.954 680.703 597.625C691.085 589.452 699.751 579.928 707.738 569.451C708.802 568.055 710.471 566.479 710.998 564.82L710.503 564.602C702.348 573.623 693.838 582.412 684.231 589.912C655.262 612.525 617.527 624.502 581.037 626.326C573.556 626.7 566.018 626.358 558.531 626.215C570.635 605.82 583.933 585.498 598.882 567.072C636.226 567.13 676.22 558.538 703.62 531.301C710.224 524.736 719.447 514.84 723.441 506.292L723.133 506.041C716.575 514.268 710.174 522.056 702.013 528.837C679.976 547.149 649.004 555.537 620.985 558.673C615.469 559.309 609.934 559.766 604.388 560.042C609.068 553.133 643.911 510.673 649.85 506.399C652.035 504.827 668.424 499.58 672.756 497.678C694.6 488.083 713.988 473.627 727.161 453.513C728.854 450.929 731.805 447.302 732.541 444.404C727.95 449.489 724.39 455.36 719.692 460.419C703.248 478.123 679.961 490.137 656.783 496.045C664.083 487.091 670.796 477.744 677.738 468.516C697.162 442.696 714.849 417.594 728.688 388.193C730.07 385.256 733.4 379.837 733.493 376.738C733.499 376.542 733.442 376.35 733.417 376.156C731.595 378.169 730.451 382.045 729.053 384.515C725.968 389.965 722.604 395.286 719.313 400.616C706.646 421.127 685.874 448.605 667.804 464.346C669.316 450.612 671.717 436.991 674.992 423.567C675.757 420.495 679.316 411.194 678.827 409.024C669.95 427.585 665.92 447.773 663.882 468.13C651.297 482.638 637.626 496.871 623.373 509.78C622.131 489.918 624.586 468.392 631.338 449.653C633.095 444.778 638.336 436.045 638.965 431.621C637.225 432.965 635.74 436.455 634.626 438.404C625.975 453.547 619.732 471.097 617.453 488.44C616.205 497.936 616.367 507.508 616.555 517.062C608.288 526.67 599.941 536.26 591.996 546.137C587.308 551.965 583.011 558.386 577.996 563.903C570.118 531.785 571.151 490.857 587.945 461.717C588.37 460.98 588.225 461.241 588.51 460.286L588.002 460.282C568.696 485.864 565.215 522.719 569.496 553.5C570.326 559.468 571.227 565.56 572.737 571.395C563.781 585.394 552.719 598.555 544.671 613.065C533.601 583.628 529.63 549.694 534.254 518.568C534.885 514.322 536.122 510.375 536.965 506.21L536.635 506.121C526.289 527.712 527.346 564.461 531.741 587.853C533.805 598.842 537.14 609.406 540.385 620.08C529.932 640.426 518.529 660.011 509.405 681.053C496.603 656.604 487.941 628.944 486.192 601.348C485.574 591.594 486.11 581.762 486.315 572.004L485.84 572.25C484.904 578.324 484.686 584.736 484.373 590.882C482.977 618.233 486.927 639.571 496.484 664.942C499.332 672.504 502.336 680.294 506.326 687.334C490.159 729.056 477.401 769.665 475.884 814.731C475.477 826.817 475.645 839.447 477.65 851.391C479.177 860.493 481.962 869.165 484.898 877.883L480.031 875.649C477.149 871.288 475.329 866.307 473.555 861.415C465.191 838.362 463.756 813.641 466.378 789.368C467.427 779.669 470.457 769.586 469.608 759.831C468.407 746.038 461.965 731.83 456.715 719.176L457.177 718.236C456.33 715.949 455.198 711.731 452.941 710.662C450.077 710.84 447.378 709.972 444.539 709.664C434.413 708.565 424.271 707.803 414.276 705.714C372.213 696.925 331.667 677.662 299.782 648.697C293.851 643.309 285.747 635.398 281.368 628.684C289.839 612.501 299.459 620.968 306.919 607.664L307.251 607.061L307.585 607.107L308.181 607.924C308.702 607.878 309.577 607.721 310.122 607.787C312.211 608.039 314.085 605.11 316.202 604.203C319.778 602.671 323.891 603.947 327.669 603.418C328.516 602.45 328.455 602.182 328.608 600.883L327.901 600.159L327.116 600.932C326.012 599.94 325.567 599.285 325.045 597.889C324.994 597.753 324.947 597.616 324.898 597.479L324.142 597.314L324.952 597.573L324.648 597.288C323.663 597.515 323.879 597.352 323.19 597.843C321.669 598.929 320.223 600.317 318.581 601.208C317.585 601.749 316.43 602.086 315.343 601.611C314.215 601.118 313.61 600.203 313.253 599.115L313.898 597.84C315.187 596.866 316.052 596.544 317.641 596.233C317.808 596.2 317.975 596.171 318.143 596.14C318.563 592.968 314.839 588.757 313.6 585.877C313.08 584.669 312.907 583.572 313.432 582.353C320.849 589.453 334.811 603.688 343.759 607.476C349.594 609.947 355.091 613.352 360.903 615.952C373.322 621.509 386.756 624.997 400.158 627.188C405.914 628.129 429.106 629.134 430.773 629.756C434.476 631.138 449.707 671.738 453.18 678.202C453.267 678.364 453.358 678.524 453.447 678.685C450.898 679.993 443.69 678.069 440.593 677.678C412.233 674.1 383.438 668.367 358.067 654.532C349.68 649.958 340.868 644.582 333.829 638.089C332.143 636.534 329.738 633.701 327.296 633.786L326.881 634.639C328.279 638.04 332.048 641.002 334.706 643.536C355.18 663.057 389.212 675.884 416.978 680.536C424.008 681.714 431.195 682.76 438.3 683.316C442.701 683.661 447.145 683.651 451.534 684.094C452.445 684.187 453.947 684.352 454.749 684.86C459.195 687.676 460.078 704.447 463.912 708.074C464.132 708.282 464.368 708.472 464.595 708.67C468.493 720.261 471.918 731.665 474.84 743.542C477.05 732.766 480.497 722.331 483.815 711.859ZM525.625 703.465C538.889 704.249 552.541 704.129 565.717 702.375C600.761 697.71 639.009 682.622 665.6 658.988C667.969 656.884 676.804 649.324 677.261 646.565C652.961 668.609 625.768 682.307 594.383 691.261C582.113 694.762 569.735 697.568 557.05 699.057C552.565 699.583 527.632 701.148 525.336 702.613L525.625 703.465Z"/>
	<path fill="#2BA14E" transform="scale(0.03125 0.03125)" d="M319.491 605.367C319.851 605.45 320.336 605.552 320.673 605.676C321.751 606.073 321.825 606.062 322.297 607.134C321.78 608.02 321.519 608.378 320.594 608.904C320.331 609.053 320.053 609.177 319.784 609.316L319.137 609.656C318.332 609.397 318.744 609.479 317.685 609.431C317.404 609.419 317.123 609.412 316.842 609.403L315.727 608.05L315.898 607.084C317.096 605.905 317.853 605.669 319.491 605.367Z"/>
	<defs>
		<linearGradient id="gradient_1" gradientUnits="userSpaceOnUse" x1="430.46637" y1="643.19232" x2="250.34612" y2="386.22995">
			<stop offset="0" stop-color="#479740"/>
			<stop offset="1" stop-color="#7DB44A"/>
		</linearGradient>
	</defs>
	<path fill="url(#gradient_1)" transform="scale(0.03125 0.03125)" d="M272.963 368.496C279.129 372.868 284.665 378.373 290.663 383.019C301.861 391.693 314.173 399.264 326.535 406.141C380.175 435.981 440.674 451.149 475.403 506.215C460.687 536.877 453.14 567.58 451.36 601.545C450.758 613.031 450.595 625.493 452.06 636.926C445.575 621.248 436.387 606.678 427.589 592.223C430.768 585.144 433.538 577.964 435.29 570.387C439.811 550.838 436.332 522.851 425.614 505.758C434.515 535.335 434.435 556.764 423.37 585.491C420.026 581.578 417.386 576.779 414.421 572.539C409.503 565.508 404.195 558.684 399.573 551.457C399.295 523.215 395.564 502.913 382.01 477.648C379.081 472.187 376.096 466.424 372.365 461.47C383.397 484.637 395.913 515.574 390.77 541.551C387.681 538.467 361.211 508.464 360.206 506.387C351.908 489.242 348.208 468.84 344.791 450.215C343.876 445.222 343.329 440.141 342.206 435.192C340.54 447.042 347.82 487.012 352.219 498.815C339.512 482.555 325.577 467.214 313.7 450.298C307.869 441.993 302.366 433.328 296.971 424.733C294.043 420.069 291.268 414.3 287.562 410.306C299.112 435.355 312.179 458.801 327.462 481.748C334.433 492.217 342.209 502.083 349.06 512.648C330.468 507.201 311.808 496.949 298.097 483.232C294.252 479.386 290.861 474.886 287.378 470.706L287.267 471.242C290.246 475.035 292.342 479.285 295.486 483.043C311.2 501.822 332.222 512.513 354.994 520.249C361.651 529.054 368.185 537.874 375.176 546.43C381.172 553.768 387.693 560.848 393.14 568.601C363.757 568.199 327.859 553.341 306.207 534.213C303.302 531.646 290.362 517.092 290.226 517.054L290.026 517.742C292.305 522.118 296.34 526.471 299.658 530.125C324.294 557.248 361.411 573.035 397.622 574.817C409.807 588.561 421.185 607.622 429.276 624.053C395.184 622.689 357.294 613.563 329.577 592.999C325.512 589.974 321.594 586.756 317.836 583.356C314.754 580.583 309.941 574.34 306.624 572.705C307.725 575.72 314.47 582.011 317.078 584.694C340.33 608.625 371.824 622.753 404.767 626.881C413.617 627.99 422.524 628.168 431.431 628.306C440.894 644.708 448.054 662.875 454.897 680.489C423.929 676.122 396.118 673.032 367.171 659.883C358.382 655.889 349.763 651.332 341.847 645.786C339.237 643.959 330.58 635.699 328.608 635.438C328.795 635.925 328.835 636.1 329.18 636.577C332.375 641 338.112 645.434 342.375 648.81C360.823 663.426 387.543 673.668 410.573 678.349C425.494 681.382 440.908 682.598 456.079 683.534C458.784 691.959 462.105 700.149 464.595 708.67C464.368 708.472 464.132 708.282 463.912 708.074C460.078 704.447 459.195 687.676 454.749 684.86C453.947 684.352 452.445 684.187 451.534 684.094C447.145 683.651 442.701 683.661 438.3 683.316C431.195 682.76 424.008 681.714 416.978 680.536C389.212 675.884 355.18 663.057 334.706 643.536C332.048 641.002 328.279 638.04 326.881 634.639L327.296 633.786C329.738 633.701 332.143 636.534 333.829 638.089C340.868 644.582 349.68 649.958 358.067 654.532C383.438 668.367 412.233 674.1 440.593 677.678C443.69 678.069 450.898 679.993 453.447 678.685C453.358 678.524 453.267 678.364 453.18 678.202C449.707 671.738 434.476 631.138 430.773 629.756C429.106 629.134 405.914 628.129 400.158 627.188C386.756 624.997 373.322 621.509 360.903 615.952C355.091 613.352 349.594 609.947 343.759 607.476C334.811 603.688 320.849 589.453 313.432 582.353C312.907 583.572 313.08 584.669 313.6 585.877C314.839 588.757 318.563 592.968 318.143 596.14C317.975 596.171 317.808 596.2 317.641 596.233C316.052 596.544 315.187 596.866 313.898 597.84L313.253 599.115C313.61 600.203 314.215 601.118 315.343 601.611C316.43 602.086 317.585 601.749 318.581 601.208C320.223 600.317 321.669 598.929 323.19 597.843C323.879 597.352 323.663 597.515 324.648 597.288L324.952 597.573L324.142 597.314L324.898 597.479C324.947 597.616 324.994 597.753 325.045 597.889C325.567 599.285 326.012 599.94 327.116 600.932L327.901 600.159L328.608 600.883C328.455 602.182 328.516 602.45 327.669 603.418C323.891 603.947 319.778 602.671 316.202 604.203C314.085 605.11 312.211 608.039 310.122 607.787C309.577 607.721 308.702 607.878 308.181 607.924L307.585 607.107L307.251 607.061L306.919 607.664C299.459 620.968 289.839 612.501 281.368 628.684C285.747 635.398 293.851 643.309 299.782 648.697C331.667 677.662 372.213 696.925 414.276 705.714C424.271 707.803 434.413 708.565 444.539 709.664C447.378 709.972 450.077 710.84 452.941 710.662C455.198 711.731 456.33 715.949 457.177 718.236L456.715 719.176C455.283 716.705 454.199 714.027 453.035 711.422C415.961 708.143 386.707 701.747 352.848 685.675C304.59 662.767 266.271 622.827 248.322 572.3C231.563 525.125 234.214 469.584 249.863 422.497C256.014 403.988 264.568 386.077 272.963 368.496Z"/>
	<path fill="#2BA14E" transform="scale(0.03125 0.03125)" d="M498.938 279.241C508.151 279.174 517.363 279.272 526.572 279.535C527.335 296.158 526.088 312.9 526.969 329.536C544.071 329.363 561.228 329.868 578.336 329.956C577.957 339.339 578.367 348.812 578.422 358.206C561.188 357.496 543.715 358.043 526.459 358.093C526.603 363.286 527.437 408.311 525.847 410.18L523.204 410.23C514.794 410.317 506.017 409.506 497.668 410.379C497.19 393.007 497.492 375.554 497.457 358.171C491.545 357.809 485.522 358.209 479.596 358.263L445.512 358.507L445.42 330.078C462.876 329.967 480.332 329.977 497.787 330.109C497.53 318.878 497.43 307.643 497.488 296.409C497.478 291.197 496.786 284.772 497.864 279.742L498.938 279.241Z"/>
	<defs>
		<linearGradient id="gradient_2" gradientUnits="userSpaceOnUse" x1="411.91965" y1="427.41669" x2="159.37347" y2="278.81604">
			<stop offset="0" stop-color="#5EA145"/>
			<stop offset="1" stop-color="#8FC14B"/>
		</linearGradient>
	</defs>
	<path fill="url(#gradient_2)" transform="scale(0.03125 0.03125)" d="M511.876 96.0929C515.954 101.315 519.642 106.821 523.765 112.011C529.09 118.714 534.906 124.865 540.84 131.029C538.82 135.22 530.617 142.477 526.7 145.321C523.575 147.59 519.152 148.659 515.502 149.873C515.399 151.778 515.851 153.577 515.747 155.508C514.725 154.402 513.651 153.322 512.758 152.106C495.359 169.129 479.72 184.379 459.985 198.938C442.017 212.193 422.336 223.629 402.594 233.994C336.095 268.906 264.644 290.802 192.593 311.021C194.049 330.04 193.186 349.6 193.201 368.695L193.352 435.602C193.324 454.637 192.963 473.725 193.807 492.748C195.369 536.148 203.815 579.025 218.827 619.776C224.915 636.238 231.474 652.57 239.607 668.144C243.66 675.904 249.156 683.317 252.787 691.195L252.203 692.611L251.209 692.825C251.909 694.387 253.639 696.733 253.337 698.389L252.357 698.57C250.354 697.746 249.122 695.923 247.745 694.315C246.12 693.802 245.61 695.173 243.879 695.35L243.943 695.307C241.942 689.981 238.921 682.388 233.475 679.776C231.983 679.06 230.287 679.054 228.741 679.608C226.213 680.515 222.639 683.242 221.521 685.699C221.942 688.942 222.877 700.2 221.146 702.486L220.247 702.268C217.889 699.624 213.623 691.852 212.991 688.405C212.633 686.45 212.332 685.275 211.299 683.531C209.971 681.29 207.43 677.351 204.748 676.707C206.393 679.631 207.756 682.705 209.175 685.743L208.733 686.54C204.344 681.344 194.93 658.091 191.709 650.45C172.446 604.847 161.002 556.325 157.857 506.92C156.057 475.672 157.089 444.06 156.993 412.752C156.452 369.043 156.291 325.331 156.512 281.62C161.695 280.152 167.127 279.194 172.373 277.915C185.819 274.645 199.22 271.19 212.571 267.552C290.804 245.625 378.972 214.039 444.358 164.889C461.042 152.348 476.848 137.798 491.02 122.49C498.696 114.199 504.977 104.994 511.876 96.0929Z"/>
	<path fill="#2BA14E" transform="scale(0.03125 0.03125)" d="M259.271 701.795C259.197 701.792 259.119 701.81 259.05 701.784C257.642 701.268 257.104 699.883 256.319 698.686L255.918 699.054C256.072 700.12 255.935 699.773 256.346 700.634C256.913 701.817 257.513 702.624 257.376 703.992C256.177 703.888 255.655 703.121 254.762 702.355C254.639 703.437 254.82 703.319 253.962 704.157L252.978 704.067C252.325 702.096 253.41 699.518 254.057 697.632L255.322 697.437L255.317 696.843C254.539 696.029 253.897 695.458 253.491 694.385C253.197 693.608 253.431 693.465 253.709 692.748C255.562 695.547 258.002 698.685 259.271 701.795Z"/>
</svg>
